# Blender 4.4.0
# www.blender.org
mtllib Wall_Damaged.mtl
o wall
v 0.500000 1.000000 -0.150000
v 0.500000 0.800000 -0.150000
v 0.500000 1.000000 0.150000
v 0.500000 0.700000 -0.100000
v 0.500000 0.200000 -0.100000
v 0.500000 0.700000 0.100000
v 0.500000 0.800000 0.150000
v 0.500000 0.200000 0.100000
v 0.500000 0.000000 0.150000
v 0.500000 0.200000 0.150000
v 0.500000 -0.000000 -0.150000
v 0.500000 0.200000 -0.150000
v -0.500000 -0.000000 -0.150000
v -0.500000 0.200000 -0.150000
v -0.500000 0.000000 0.150000
v -0.500000 0.200000 -0.100000
v -0.500000 0.700000 -0.100000
v -0.500000 0.200000 0.100000
v -0.500000 0.200000 0.150000
v -0.500000 0.700000 0.100000
v -0.500000 1.000000 0.150000
v -0.500000 0.800000 0.150000
v -0.500000 1.000000 -0.150000
v -0.500000 0.800000 -0.150000
vn 0.5773 0.5774 0.5774
vn 0.6689 0.0113 -0.7433
vn 0.5774 0.5774 -0.5774
vn 0.7627 -0.1486 -0.6295
vn 0.9045 0.3015 -0.3015
vn 0.7627 -0.1486 0.6295
vn 0.6681 -0.3768 0.6416
vn 0.5774 -0.5773 0.5773
vn 0.9045 0.3015 0.3015
vn 0.5774 0.5774 0.5773
vn -0.5773 -0.5773 0.5774
vn -0.5774 0.5774 -0.5773
vn -0.5774 -0.5774 -0.5774
vn -0.9045 0.3015 -0.3015
vn -0.7627 -0.1486 -0.6295
vn -0.9045 0.3015 0.3015
vn 0.5773 -0.5773 -0.5774
vn -0.5774 0.5774 0.5774
vn -0.4773 -0.2334 -0.8472
vn -0.7627 -0.1486 0.6295
vn -0.5773 0.5774 0.5774
vn -0.6681 0.0503 0.7424
vn -0.5774 0.5773 -0.5774
vt 0.218750 0.225000
vt 0.218750 0.185000
vt 0.218750 0.165000
vt 0.218750 0.065000
vt 0.218750 0.025000
vt 0.343750 0.025000
vt 0.343750 0.065000
vt 0.343750 0.185000
vt 0.343750 0.165000
vt 0.343750 0.225000
s 1
usemtl colormap
f 3/1/1 2/2/2 1/1/3
f 2/2/2 3/1/1 4/3/4
f 4/3/4 3/1/1 5/4/5
f 5/4/5 3/1/1 6/3/6
f 6/3/6 3/1/1 7/2/7
f 9/5/8 8/4/9 10/4/10
f 15/5/11 14/4/12 13/5/13
f 16/4/14 15/5/11 17/3/15
f 17/3/15 15/5/11 18/4/16
f 17/3/15 5/4/5 16/4/14
f 11/6/17 15/6/11 13/6/13
f 14/7/12 11/6/17 13/6/13
f 15/6/11 10/7/10 19/7/18
f 18/7/16 10/7/10 8/7/9
f 14/7/12 5/7/5 12/7/3
f 5/7/5 14/7/12 16/7/14
f 24/8/19 4/9/4 17/9/15
f 4/9/4 24/8/19 2/8/2
f 7/8/7 20/9/20 6/9/6
f 8/4/9 5/4/5 6/3/6
f 9/5/8 5/4/5 8/4/9
f 11/5/17 5/4/5 9/5/8
f 5/4/5 11/5/17 12/4/3
f 14/4/12 15/5/11 16/4/14
f 18/4/16 15/5/11 19/4/18
f 20/3/20 17/3/15 18/4/16
f 21/1/21 17/3/15 20/3/20
f 21/1/21 20/3/20 22/2/22
f 23/1/23 17/3/15 21/1/21
f 17/3/15 23/1/23 24/2/19
f 5/4/5 17/3/15 4/3/4
f 6/3/6 18/4/16 8/4/9
f 18/4/16 6/3/6 20/3/20
f 15/6/11 11/6/17 9/6/8
f 11/6/17 14/7/12 12/7/3
f 10/7/10 15/6/11 9/6/8
f 10/7/10 18/7/16 19/7/18
f 3/10/1 22/8/22 7/8/7
f 22/8/22 3/10/1 21/10/21
f 23/10/23 2/8/2 24/8/19
f 2/8/2 23/10/23 1/10/3
f 20/9/20 7/8/7 22/8/22
f 23/10/23 3/10/1 1/10/3
f 3/10/1 23/10/23 21/10/21
o Cube
v -0.095025 0.422470 0.088564
v -0.082320 0.536362 0.098755
v -0.085667 0.431219 0.014876
v -0.055026 0.531870 0.031300
v 0.045697 0.401265 0.096838
v 0.063842 0.530240 0.098791
v 0.045697 0.401265 0.026416
v 0.048273 0.521409 0.035402
v 0.009345 0.453992 0.104829
v -0.021612 0.494133 0.106330
v -0.031029 0.463198 0.101282
v 0.010136 0.490918 0.107591
v -0.062980 0.444848 0.113631
v -0.040936 0.517259 0.125446
v 0.033380 0.509732 0.128397
v 0.031527 0.423298 0.121932
vn -0.9456 0.2207 -0.2389
vn 0.0836 0.1015 -0.9913
vn 0.9909 -0.0776 -0.1102
vn 0.0431 0.8210 0.5693
vn -0.1793 -0.9812 -0.0712
vn 0.0676 0.9932 -0.0951
vn -0.0836 -0.1015 0.9913
vn 0.7699 -0.0961 0.6309
vn -0.5764 0.0110 0.8171
vn -0.1765 -0.7049 0.6870
vn -0.0978 -0.6814 0.7254
vn -0.6468 -0.0431 0.7615
vn 0.0404 0.5085 0.8601
vn 0.4825 -0.2822 0.8292
vt 0.375000 0.000000
vt 0.625000 0.000000
vt 0.625000 0.250000
vt 0.375000 0.250000
vt 0.625000 0.500000
vt 0.375000 0.500000
vt 0.625000 0.750000
vt 0.375000 0.750000
vt 0.875000 0.750000
vt 0.125000 0.500000
vt 0.125000 0.750000
vt 0.875000 0.500000
vt 0.625000 1.000000
vt 0.375000 1.000000
s 0
usemtl Material.001
f 25/11/24 26/12/24 28/13/24 27/14/24
f 27/14/25 28/13/25 32/15/25 31/16/25
f 31/16/26 32/15/26 30/17/26 29/18/26
f 30/17/27 26/19/27 38/19/27 39/17/27
f 27/20/28 31/16/28 29/18/28 25/21/28
f 32/15/29 28/22/29 26/19/29 30/17/29
f 29/18/31 30/17/31 39/17/31 40/18/31
f 26/12/32 25/11/32 37/11/32 38/12/32
f 25/21/33 29/18/33 40/18/33 37/21/33
f 39/17/34 38/19/34 34/19/34 36/17/34
f 40/18/35 39/17/35 36/17/35 33/18/35
f 37/21/36 40/18/36 33/18/36 35/21/36
f 38/12/37 37/11/37 35/11/37 34/12/37
usemtl Material.002
f 33/18/30 36/17/30 34/23/30 35/24/30
